# xmcd CD database file
#
# Track frame offsets:
#	182
#	22660
#	50090
#	77712
#	107442
#	123160
#	148420
#	178045
#	189690
#	214240
#	247402
#
# Disc length: 3657 seconds
#
# Revision: 0
# Processed by: cddbd v1.4PL0 Copyright (c) Steve Scherf et al.
# Submitted via: CDex 1.50
#
DISCID=a00e470b
DTITLE=Andrienne Wilson - The Buoyancy Factor
DYEAR=1992
DGENRE=Jazz
TTITLE0=Flame On
TTITLE1=Indifference From You
TTITLE2=Family Man
TTITLE3=I Fall In Love With Men
TTITLE4=More Than Just A Fool
TTITLE5=I'm On The Right Track
TTITLE6=Learn To Love
TTITLE7=Be-boppin' Baby
TTITLE8=Addicted To Your Love
TTITLE9=Temptress
TTITLE10=As In Solitude
EXTD=YEAR: 1992
EXTT0=
EXTT1=
EXTT2=
EXTT3=
EXTT4=
EXTT5=
EXTT6=
EXTT7=
EXTT8=
EXTT9=
EXTT10=
PLAYORDER=
